<?xml version="1.0" encoding="iso-8859-1"?>
<!-- Generator: Adobe Illustrator 19.0.0, SVG Export Plug-In . SVG Version: 6.00 Build 0)  -->
<svg version="1.1" id="Capa_1" xmlns="http://www.w3.org/2000/svg" xmlns:xlink="http://www.w3.org/1999/xlink" x="0px" y="0px" viewBox="0 0 512 512" style="enable-background:new 0 0 512 512;" xml:space="preserve">
	<g>
		<g>
			<path d="M426.547,122.522C423.68,54.477,367.42,0,298.667,0c-49.323,0-93.568,27.913-114.97,71.799
			c-6.963-2.347-14.182-3.533-21.564-3.533c-37.641,0-68.267,30.626-68.267,68.267c0,5.837,0.725,11.546,2.176,17.092
			C43.119,152.363,0,194.987,0,247.467c0,51.755,42.112,93.867,93.867,93.867h307.2C462.234,341.333,512,291.567,512,230.4
			C512,178.475,476.476,134.204,426.547,122.522z M401.067,324.267h-307.2c-42.342,0-76.8-34.449-76.8-76.8
			c0-42.351,34.458-76.8,76.8-76.8c4.301,0,8.73,0.418,13.542,1.271c3.234,0.589,6.426-0.725,8.346-3.32
			c1.929-2.603,2.219-6.067,0.751-8.951c-3.695-7.279-5.572-15.061-5.572-23.134c0-28.237,22.963-51.2,51.2-51.2
			c7.706,0,15.189,1.732,22.255,5.163c2.116,1.024,4.574,1.143,6.767,0.282c2.202-0.845,3.959-2.56,4.847-4.736
			c17.152-41.899,57.446-68.975,102.665-68.975c61.167,0,110.933,49.766,110.916,111.104c-0.008,0.171-0.06,1.05-0.06,1.212
			c-0.068,4.224,2.961,7.859,7.125,8.559c45.363,7.595,78.285,46.473,78.285,92.459
			C494.933,282.155,452.821,324.267,401.067,324.267z" />
		</g>
	</g>
	<g>
		<g>
			<path d="M401.067,119.467c-61.167,0-110.933,49.766-110.933,110.933c0,4.719,3.823,8.533,8.533,8.533s8.533-3.814,8.533-8.533
			c0-51.755,42.112-93.867,93.867-93.867c51.755,0,93.867,42.112,93.867,93.867c0,4.719,3.823,8.533,8.533,8.533
			S512,235.119,512,230.4C512,169.233,462.234,119.467,401.067,119.467z" />
		</g>
	</g>
	<g>
		<g>
			<path d="M298.667,0c-70.579,0-128,57.421-128,128c0,15.744,2.825,31.113,8.397,45.696c1.297,3.413,4.54,5.495,7.97,5.495
			c1.015,0,2.048-0.179,3.055-0.555c4.403-1.681,6.605-6.613,4.924-11.016c-4.83-12.646-7.279-25.967-7.279-39.62
			c0-61.167,49.766-110.933,110.933-110.933c4.71,0,8.533-3.814,8.533-8.533S303.377,0,298.667,0z" />
		</g>
	</g>
	<g>
		<g>
			<path d="M256,443.733c-18.825,0-34.133,15.309-34.133,34.133S237.175,512,256,512c18.825,0,34.133-15.309,34.133-34.133
			S274.825,443.733,256,443.733z M256,494.933c-9.412,0-17.067-7.654-17.067-17.067S246.588,460.8,256,460.8
			c9.412,0,17.067,7.654,17.067,17.067S265.412,494.933,256,494.933z" />
		</g>
	</g>
	<g>
		<g>
			<path d="M93.867,435.2c-18.825,0-34.133,15.309-34.133,34.133c0,18.825,15.309,34.133,34.133,34.133
			c18.825,0,34.133-15.309,34.133-34.133C128,450.509,112.691,435.2,93.867,435.2z M93.867,486.4
			c-9.412,0-17.067-7.654-17.067-17.067c0-9.412,7.654-17.067,17.067-17.067c9.412,0,17.067,7.654,17.067,17.067
			C110.933,478.746,103.279,486.4,93.867,486.4z" />
		</g>
	</g>
	<g>
		<g>
			<path d="M256,324.267c-4.71,0-8.533,3.814-8.533,8.533v119.467c0,4.719,3.823,8.533,8.533,8.533s8.533-3.814,8.533-8.533V332.8
			C264.533,328.081,260.71,324.267,256,324.267z" />
		</g>
	</g>
	<g>
		<g>
			<path d="M34.133,358.4C15.309,358.4,0,373.709,0,392.533c0,18.825,15.309,34.133,34.133,34.133
			c18.825,0,34.133-15.309,34.133-34.133C68.267,373.709,52.958,358.4,34.133,358.4z M34.133,409.6
			c-9.412,0-17.067-7.654-17.067-17.067c0-9.412,7.654-17.067,17.067-17.067c9.412,0,17.067,7.654,17.067,17.067
			C51.2,401.946,43.546,409.6,34.133,409.6z" />
		</g>
	</g>
	<g>
		<g>
			<path d="M128,324.267c-4.71,0-8.533,3.814-8.533,8.533c0,32.93-26.795,59.733-59.733,59.733c-4.71,0-8.533,3.814-8.533,8.533
			c0,4.719,3.823,8.533,8.533,8.533c42.342,0,76.8-34.449,76.8-76.8C136.533,328.081,132.71,324.267,128,324.267z" />
		</g>
	</g>
	<g>
		<g>
			<path d="M196.267,324.267c-4.71,0-8.533,3.814-8.533,8.533v59.733c0,37.641-30.626,68.267-68.267,68.267
			c-4.71,0-8.533,3.814-8.533,8.533s3.823,8.533,8.533,8.533c47.053,0,85.333-38.281,85.333-85.333V332.8
			C204.8,328.081,200.977,324.267,196.267,324.267z" />
		</g>
	</g>
	<g>
		<g>
			<path d="M418.133,435.2c-18.825,0-34.133,15.309-34.133,34.133c0,18.825,15.309,34.133,34.133,34.133s34.133-15.309,34.133-34.133
			C452.267,450.509,436.958,435.2,418.133,435.2z M418.133,486.4c-9.412,0-17.067-7.654-17.067-17.067
			c0-9.412,7.654-17.067,17.067-17.067s17.067,7.654,17.067,17.067C435.2,478.746,427.546,486.4,418.133,486.4z" />
		</g>
	</g>
	<g>
		<g>
			<path d="M477.867,358.4c-18.825,0-34.133,15.309-34.133,34.133c0,18.825,15.309,34.133,34.133,34.133S512,411.358,512,392.533
			C512,373.709,496.691,358.4,477.867,358.4z M477.867,409.6c-9.412,0-17.067-7.654-17.067-17.067
			c0-9.412,7.654-17.067,17.067-17.067s17.067,7.654,17.067,17.067C494.933,401.946,487.279,409.6,477.867,409.6z" />
		</g>
	</g>
	<g>
		<g>
			<path d="M452.267,392.533c-32.939,0-59.733-26.803-59.733-59.733c0-4.719-3.823-8.533-8.533-8.533s-8.533,3.814-8.533,8.533
			c0,42.351,34.458,76.8,76.8,76.8c4.71,0,8.533-3.814,8.533-8.533C460.8,396.348,456.977,392.533,452.267,392.533z" />
		</g>
	</g>
	<g>
		<g>
			<path d="M392.533,460.8c-37.641,0-68.267-30.626-68.267-68.267V332.8c0-4.719-3.823-8.533-8.533-8.533s-8.533,3.814-8.533,8.533
			v59.733c0,47.053,38.281,85.333,85.333,85.333c4.71,0,8.533-3.814,8.533-8.533S397.244,460.8,392.533,460.8z" />
		</g>
	</g>
	<g></g>
	<g></g>
	<g></g>
	<g></g>
	<g></g>
	<g></g>
	<g></g>
	<g></g>
	<g></g>
	<g></g>
	<g></g>
	<g></g>
	<g></g>
	<g></g>
	<g></g>
</svg>
