<?xml version="1.0" encoding="iso-8859-1"?>
<!-- Generator: Adobe Illustrator 19.0.0, SVG Export Plug-In . SVG Version: 6.00 Build 0)  -->
<svg version="1.1" id="Capa_1" xmlns="http://www.w3.org/2000/svg" xmlns:xlink="http://www.w3.org/1999/xlink" x="0px" y="0px" viewBox="0 0 360 360" style="enable-background:new 0 0 360 360;" xml:space="preserve">
	<g>
		<g>
			<path d="M346.5,65c0.1-1,0.1-1.4,0.2-2l0.1-0.6c0.3-1.4,0.3-2.9,0-4.3c-1-12.7-11.5-29.7-52.8-42.9C263.4,5.4,223,0,180,0
			S96.6,5.4,66,15.2C24.7,28.4,14.3,45.4,13.2,58.1c-0.3,1.4-0.3,2.8,0,4.2l0.1,0.7c0,0.6,0.1,1,0.2,2c-0.8,0-1.5,0.7-1.5,1.5v33.8
			c0,32.7,9.6,64.6,27.6,91.9l25.7,126.1l0.1,0.1c1.3,5.9,5,11,10.2,14c0.2,0.1,0.4,0.2,0.6,0.3c64.4,36.4,143.2,36.4,207.6,0
			c0.2-0.1,0.4-0.2,0.6-0.3c5.2-3,8.9-8.1,10.2-14v-0.1l25.8-126.1c18-27.3,27.6-59.2,27.6-91.9V66.5C348,65.7,347.3,65,346.5,65z
			 M275.1,314.2c-0.1,0.2-0.2,0.5-0.4,0.7l-0.2,0.1c-58.6,33.4-130.4,33.4-189,0c-0.1,0-0.1-0.1-0.2-0.1c-0.2-0.2-0.3-0.4-0.4-0.7
			l-18.4-90.3c64.2,58.9,162.7,58.9,226.9,0L275.1,314.2z M301.5,184.3c-46.2,67.1-138.1,84-205.2,37.8
			c-14.8-10.2-27.6-23-37.8-37.8L40.2,94.7c32.5,17.6,88.9,25.9,139.8,25.9c39.8,0,78.2-4.7,107.9-13.3c10.3-3,21.8-7.1,31.9-12.6
			L301.5,184.3z M326.2,63c-6.2,15.9-59.8,37.6-146.2,37.6S40,78.9,33.8,63.1l-0.6-3c0.2-6.3,10.5-16.7,39-25.8
			c28.7-9.2,67-14.2,107.9-14.2c40.9,0,79.2,5.1,107.9,14.2c28.4,9.1,38.7,19.5,39,25.8L326.2,63z" />
		</g>
	</g>
	<g></g>
	<g></g>
	<g></g>
	<g></g>
	<g></g>
	<g></g>
	<g></g>
	<g></g>
	<g></g>
	<g></g>
	<g></g>
	<g></g>
	<g></g>
	<g></g>
	<g></g>
</svg>
