<svg id="Capa_1" enable-background="new 0 0 512 512" viewBox="0 0 512 512" xmlns="http://www.w3.org/2000/svg">
  <g>
    <g>
      <path d="m57.052 293.15v18.581l198.948 9.29 198.948-9.29v-18.581l-198.948-9.29z" fill="#3c434c" />
      <path d="m454.948 334.156-198.948 9.291-198.948-9.291v-22.425h397.896z" fill="#454d58" />
      <path d="m82.776 499.312c1.318 7.215 7.624 12.688 15.219 12.688h30.101c7.595 0 13.901-5.473 15.219-12.688l-30.269-9.29z" fill="#eacc73" />
      <path d="m82.511 480.731v15.785c0 .956.099 1.887.265 2.796h60.539c.166-.908.265-1.84.265-2.796v-15.785l-30.535-9.29z" fill="#e3bd57" />
      <path d="m368.685 499.312c1.318 7.215 7.623 12.688 15.219 12.688h30.101c7.595 0 13.901-5.473 15.219-12.688l-30.269-9.29z" fill="#eacc73" />
      <path d="m368.42 480.731v15.785c0 .956.099 1.887.265 2.796h60.539c.166-.908.265-1.84.265-2.796v-15.785l-30.534-9.29z" fill="#e3bd57" />
      <path d="m57.052 458.305v1.781c0 11.402 9.243 20.645 20.645 20.645h356.605c11.402 0 20.645-9.243 20.645-20.645v-1.781l-198.947-9.29z" fill="#454d58" />
      <path d="m57.052 439.725v18.581h397.896v-18.581l-208.388-9.29z" fill="#3c434c" />
      <path d="m48.516 430.435h414.968c17.24 0 20.645-18.533 20.645-29.936v-45.698c0-11.402-9.243-20.645-20.645-20.645h-414.968c-11.402 0-20.645 9.243-20.645 20.645v45.698c0 11.402 1.775 29.936 20.645 29.936z" fill="#dad8db" />
      <path d="m57.052 22.426h397.895v18.581h-397.895z" fill="#3c434c" />
      <path d="m454.948 22.426v-1.78c0-11.403-9.244-20.646-20.646-20.646h-356.604c-11.402 0-20.646 9.243-20.646 20.645v1.78l198.948 9.291z" fill="#454d58" />
      <path d="m57.052 22.426h397.895v18.581h-397.895z" fill="#3c434c" />
      <path d="m57.052 41.006 198.948 9.291 198.948-9.291v-18.58h-397.896z" fill="#3c434c" />
      <path d="m332.12 396.983c13.644 0 16.954-13.326 16.954-19.333-3.286-5.984-9.645-10.042-16.954-10.042-7.31 0-13.668 4.058-16.954 10.043-.001 7.071 4.136 19.332 16.954 19.332z" fill="#eacc73" />
      <path d="m463.484 421.144h-414.968c-11.402 0-20.645-9.243-20.645-20.645v18.581c0 11.402 9.243 20.645 20.645 20.645h414.968c11.402 0 20.645-9.243 20.645-20.645v-18.581c0 11.402-9.243 20.645-20.645 20.645z" fill="#c8c5c9" />
      <path d="m332.119 387.693c-7.309 0-13.668-4.058-16.954-10.043-1.514 2.758-2.379 5.922-2.379 9.29 0 10.678 8.656 19.333 19.333 19.333s19.333-8.656 19.333-19.333c0-3.368-.865-6.533-2.379-9.29-3.286 5.985-9.645 10.043-16.954 10.043z" fill="#e3bd57" />
      <path d="m405.248 396.983c13.644 0 16.954-13.326 16.954-19.333-3.286-5.984-9.645-10.042-16.954-10.042s-13.668 4.058-16.954 10.043c0 7.071 4.136 19.332 16.954 19.332z" fill="#b3e59f" />
      <path d="m405.248 387.693c-7.309 0-13.668-4.058-16.954-10.043-1.514 2.758-2.379 5.922-2.379 9.29 0 10.678 8.655 19.333 19.333 19.333 10.677 0 19.333-8.656 19.333-19.333 0-3.368-.865-6.533-2.379-9.29-3.286 5.985-9.645 10.043-16.954 10.043z" fill="#95d6a4" />
      <path d="m57.052 146.575v18.581l198.948 9.29 198.948-9.29v-18.581l-198.948-9.29z" fill="#3c434c" />
      <path d="m454.948 187.581-198.948 9.291-198.948-9.291v-22.425h397.896z" fill="#454d58" />
      <path d="m48.516 283.86h414.968c17.24 0 20.645-18.533 20.645-29.935v-45.698c0-11.402-9.243-20.645-20.645-20.645h-414.968c-11.402 0-20.645 9.243-20.645 20.645v45.698c0 11.401 1.775 29.935 20.645 29.935z" fill="#dad8db" />
      <path d="m332.12 250.408c13.644 0 16.954-13.326 16.954-19.333-3.286-5.984-9.645-10.042-16.954-10.042-7.31 0-13.668 4.058-16.954 10.043-.001 7.071 4.136 19.332 16.954 19.332z" fill="#eacc73" />
      <path d="m463.484 274.569h-414.968c-11.402 0-20.645-9.243-20.645-20.645v18.581c0 11.402 9.243 20.645 20.645 20.645h414.968c11.402 0 20.645-9.243 20.645-20.645v-18.581c0 11.402-9.243 20.645-20.645 20.645z" fill="#c8c5c9" />
      <path d="m332.119 241.118c-7.309 0-13.668-4.058-16.954-10.043-1.514 2.758-2.379 5.922-2.379 9.29 0 10.678 8.656 19.333 19.333 19.333s19.333-8.656 19.333-19.333c0-3.368-.865-6.533-2.379-9.29-3.286 5.985-9.645 10.043-16.954 10.043z" fill="#e3bd57" />
      <path d="m405.248 250.408c13.644 0 16.954-13.326 16.954-19.333-3.286-5.984-9.645-10.042-16.954-10.042s-13.668 4.058-16.954 10.043c0 7.071 4.136 19.332 16.954 19.332z" fill="#b3e59f" />
      <path d="m405.248 241.118c-7.309 0-13.668-4.058-16.954-10.043-1.514 2.758-2.379 5.922-2.379 9.29 0 10.678 8.655 19.333 19.333 19.333 10.677 0 19.333-8.656 19.333-19.333 0-3.368-.865-6.533-2.379-9.29-3.286 5.985-9.645 10.043-16.954 10.043z" fill="#95d6a4" />
      <path d="m48.516 137.285h414.968c17.24 0 20.645-18.533 20.645-29.935v-45.698c0-11.402-9.243-20.645-20.645-20.645h-414.968c-11.402 0-20.645 9.243-20.645 20.645v45.698c0 11.401 1.775 29.935 20.645 29.935z" fill="#dad8db" />
      <path d="m332.12 103.834c13.644 0 16.954-13.326 16.954-19.333-3.286-5.984-9.645-10.042-16.954-10.042-7.31 0-13.668 4.059-16.954 10.043-.001 7.07 4.136 19.332 16.954 19.332z" fill="#eacc73" />
      <path d="m463.484 127.994h-414.968c-11.402 0-20.645-9.243-20.645-20.645v18.581c0 11.402 9.243 20.645 20.645 20.645h414.968c11.402 0 20.645-9.243 20.645-20.645v-18.581c0 11.402-9.243 20.645-20.645 20.645z" fill="#c8c5c9" />
      <path d="m332.119 94.543c-7.309 0-13.668-4.058-16.954-10.043-1.514 2.757-2.379 5.922-2.379 9.29 0 10.677 8.656 19.333 19.333 19.333s19.333-8.656 19.333-19.333c0-3.368-.865-6.533-2.379-9.29-3.286 5.985-9.645 10.043-16.954 10.043z" fill="#e3bd57" />
      <path d="m405.248 103.834c13.644 0 16.954-13.326 16.954-19.333-3.286-5.984-9.645-10.042-16.954-10.042s-13.668 4.059-16.954 10.043c0 7.07 4.136 19.332 16.954 19.332z" fill="#b3e59f" />
      <path d="m405.248 94.543c-7.309 0-13.668-4.058-16.954-10.043-1.514 2.757-2.379 5.922-2.379 9.29 0 10.677 8.655 19.333 19.333 19.333 10.677 0 19.333-8.656 19.333-19.333 0-3.368-.865-6.533-2.379-9.29-3.286 5.985-9.645 10.043-16.954 10.043z" fill="#95d6a4" />
    </g>
    <g fill="#454d58">
      <path d="m79.787 117.164h24.78c4.285 0 7.757-3.472 7.757-7.757s-3.473-7.757-7.757-7.757h-24.78c-4.285 0-7.757 3.473-7.757 7.757 0 4.285 3.472 7.757 7.757 7.757z" />
      <path d="m138.283 117.164h24.781c4.285 0 7.757-3.472 7.757-7.757s-3.472-7.757-7.757-7.757h-24.781c-4.284 0-7.757 3.473-7.757 7.757 0 4.285 3.473 7.757 7.757 7.757z" />
      <path d="m196.781 117.164h24.78c4.285 0 7.757-3.472 7.757-7.757s-3.473-7.757-7.757-7.757h-24.78c-4.285 0-7.757 3.473-7.757 7.757-.001 4.285 3.472 7.757 7.757 7.757z" />
      <path d="m79.787 85.297h24.78c4.285 0 7.757-3.473 7.757-7.757 0-4.285-3.473-7.757-7.757-7.757h-24.78c-4.285 0-7.757 3.472-7.757 7.757 0 4.284 3.472 7.757 7.757 7.757z" />
      <path d="m138.283 85.297h24.781c4.285 0 7.757-3.473 7.757-7.757 0-4.285-3.472-7.757-7.757-7.757h-24.781c-4.284 0-7.757 3.472-7.757 7.757 0 4.284 3.473 7.757 7.757 7.757z" />
      <path d="m196.781 85.297h24.78c4.285 0 7.757-3.473 7.757-7.757 0-4.285-3.473-7.757-7.757-7.757h-24.78c-4.285 0-7.757 3.472-7.757 7.757-.001 4.284 3.472 7.757 7.757 7.757z" />
      <path d="m104.567 248.512h-24.78c-4.285 0-7.757 3.473-7.757 7.757s3.472 7.757 7.757 7.757h24.78c4.285 0 7.757-3.472 7.757-7.757s-3.472-7.757-7.757-7.757z" />
      <path d="m163.064 248.512h-24.781c-4.284 0-7.757 3.473-7.757 7.757s3.473 7.757 7.757 7.757h24.781c4.285 0 7.757-3.472 7.757-7.757s-3.472-7.757-7.757-7.757z" />
      <path d="m221.561 248.512h-24.78c-4.285 0-7.757 3.473-7.757 7.757s3.472 7.757 7.757 7.757h24.78c4.285 0 7.757-3.472 7.757-7.757s-3.473-7.757-7.757-7.757z" />
      <path d="m104.567 216.644h-24.78c-4.285 0-7.757 3.473-7.757 7.757s3.472 7.757 7.757 7.757h24.78c4.285 0 7.757-3.473 7.757-7.757s-3.472-7.757-7.757-7.757z" />
      <path d="m163.064 216.644h-24.781c-4.284 0-7.757 3.473-7.757 7.757s3.473 7.757 7.757 7.757h24.781c4.285 0 7.757-3.473 7.757-7.757.001-4.284-3.472-7.757-7.757-7.757z" />
      <path d="m221.561 216.644h-24.78c-4.285 0-7.757 3.473-7.757 7.757s3.472 7.757 7.757 7.757h24.78c4.285 0 7.757-3.473 7.757-7.757s-3.473-7.757-7.757-7.757z" />
      <path d="m104.567 395.374h-24.78c-4.285 0-7.757 3.472-7.757 7.757s3.472 7.757 7.757 7.757h24.78c4.285 0 7.757-3.472 7.757-7.757s-3.472-7.757-7.757-7.757z" />
      <path d="m163.064 395.374h-24.781c-4.284 0-7.757 3.472-7.757 7.757s3.473 7.757 7.757 7.757h24.781c4.285 0 7.757-3.472 7.757-7.757s-3.472-7.757-7.757-7.757z" />
      <path d="m221.561 395.374h-24.78c-4.285 0-7.757 3.472-7.757 7.757s3.472 7.757 7.757 7.757h24.78c4.285 0 7.757-3.472 7.757-7.757s-3.473-7.757-7.757-7.757z" />
      <path d="m104.567 363.505h-24.78c-4.285 0-7.757 3.473-7.757 7.757 0 4.285 3.472 7.757 7.757 7.757h24.78c4.285 0 7.757-3.472 7.757-7.757 0-4.284-3.472-7.757-7.757-7.757z" />
      <path d="m163.064 363.505h-24.781c-4.284 0-7.757 3.473-7.757 7.757 0 4.285 3.473 7.757 7.757 7.757h24.781c4.285 0 7.757-3.472 7.757-7.757.001-4.284-3.472-7.757-7.757-7.757z" />
      <path d="m221.561 363.505h-24.78c-4.285 0-7.757 3.473-7.757 7.757 0 4.285 3.472 7.757 7.757 7.757h24.78c4.285 0 7.757-3.472 7.757-7.757 0-4.284-3.473-7.757-7.757-7.757z" />
    </g>
  </g>
</svg>