<?xml version="1.0" encoding="iso-8859-1"?>
<!-- Generator: Adobe Illustrator 19.0.0, SVG Export Plug-In . SVG Version: 6.00 Build 0)  -->
<svg version="1.1" id="Capa_1" xmlns="http://www.w3.org/2000/svg" xmlns:xlink="http://www.w3.org/1999/xlink" x="0px" y="0px" viewBox="0 0 511.968 511.968" style="enable-background:new 0 0 511.968 511.968;" xml:space="preserve">
	<path style="fill:#FFCE54;" d="M435.972,491.969c0,8.797-7.201,15.999-15.998,15.999H91.994c-8.801,0-15.999-7.202-15.999-15.999
	V59.996c0-8.804,7.198-15.999,15.999-15.999h327.98c8.797,0,15.998,7.195,15.998,15.999V491.969z" />
	<g style="opacity:0.5;">
		<path style="fill:#FFFFFF;" d="M91.994,491.969V59.996c0-8.804,7.198-15.999,15.999-15.999H91.994
		c-8.801,0-15.999,7.195-15.999,15.999V491.97c0,8.797,7.198,15.999,15.999,15.999h15.999
		C99.192,507.968,91.994,500.766,91.994,491.969z" />
	</g>
	<g style="opacity:0.2;">
		<path d="M419.974,59.996V491.97c0,8.805-7.203,15.999-16,15.999h16c8.797,0,15.998-7.194,15.998-15.999V59.996
		c0-8.796-7.201-15.999-15.998-15.999h-16C412.771,43.997,419.974,51.2,419.974,59.996z" />
	</g>
	<path style="fill:#656D78;" d="M435.972,451.972c0,8.796-7.201,15.999-15.998,15.999H91.994c-8.801,0-15.999-7.203-15.999-15.999
	V19.999C75.995,11.194,83.193,4,91.994,4h327.98c8.797,0,15.998,7.194,15.998,15.999V451.972z" />
	<g style="opacity:0.2;">
		<path d="M91.994,451.972V19.999C91.994,11.194,99.192,4,107.993,4H91.994c-8.801,0-15.999,7.194-15.999,15.999v431.974
		c0,8.796,7.198,15.999,15.999,15.999h15.999C99.192,467.971,91.994,460.768,91.994,451.972z" />
	</g>
	<g style="opacity:0.2;">
		<path style="fill:#FFFFFF;" d="M419.974,19.999v431.974c0,8.804-7.203,15.999-16,15.999h16c8.797,0,15.998-7.195,15.998-15.999
		V19.999c0-8.797-7.201-15.999-15.998-15.999h-16C412.771,4,419.974,11.202,419.974,19.999z" />
	</g>
	<path style="fill:#AAB2BD;" d="M115.992,51.997c-8.835,0-15.999,7.163-15.999,15.999v115.985h31.998V67.996
	C131.991,59.16,124.828,51.997,115.992,51.997z" />
	<g style="opacity:0.5;">
		<path style="fill:#FFFFFF;" d="M119.992,52.563c-1.285-0.332-2.609-0.566-4-0.566c-8.835,0-15.999,7.163-15.999,15.999v115.985h8
		V67.996C107.993,60.55,113.102,54.348,119.992,52.563z" />
	</g>
	<g style="opacity:0.2;">
		<path d="M111.993,52.563c1.285-0.332,2.609-0.566,4-0.566c8.836,0,15.999,7.163,15.999,15.999v115.985h-7.999V67.996
		C123.992,60.55,118.883,54.348,111.993,52.563z" />
	</g>
	<circle style="fill:#CCD1D9;" cx="255.984" cy="183.994" r="155.99" />
	<g style="opacity:0.5;">
		<path style="fill:#FFFFFF;" d="M115.992,183.996c0-83.452,65.582-151.397,147.992-155.588c-2.668-0.133-5.301-0.402-8-0.402
		c-86.151,0-155.991,69.84-155.991,155.991s69.84,155.99,155.991,155.99c2.699,0,5.332-0.273,8-0.398
		C181.574,335.393,115.992,267.452,115.992,183.996z" />
	</g>
	<g style="opacity:0.2;">
		<path d="M395.976,183.996c0,83.456-65.582,151.397-147.992,155.592c2.668,0.125,5.301,0.398,8,0.398
		c86.15,0,155.99-69.84,155.99-155.991s-69.84-155.99-155.99-155.99c-2.699,0-5.332,0.27-8,0.402
		C330.394,32.599,395.976,100.545,395.976,183.996z" />
	</g>
	<path style="fill:#AAB2BD;" d="M267.984,451.972H99.993c-4.398,0-7.999-3.602-7.999-8V275.983L267.984,451.972z" />
	<path style="fill:#CCD1D9;" d="M131.991,411.974H91.994v31.998c0,4.398,3.601,8,7.999,8h31.998V411.974z" />
	<rect x="291.984" y="363.974" style="fill:#ED5565;" width="103.99" height="32.01" />
	<g style="opacity:0.5;">
		<path style="fill:#FFFFFF;" d="M107.993,443.972v-151.99l-15.999-15.999v167.989c0,4.398,3.601,8,7.999,8h15.999
		C111.594,451.972,107.993,448.371,107.993,443.972z" />
	</g>
	<polygon style="fill:#FFCE54;" points="183.258,394.241 151.889,359.236 251.981,291.982 " />
	<path style="fill:#ED5565;" d="M187.992,379.976c0,13.25-10.746,23.999-24.003,23.999s-24.002-10.749-24.002-23.999
	c0-13.265,10.745-24.006,24.002-24.006C177.247,355.97,187.992,366.712,187.992,379.976z" />
	<g style="opacity:0.3;">
		<path style="fill:#FFFFFF;" d="M147.986,379.976c0-11.89,8.66-21.686,20.003-23.607c-1.309-0.219-2.629-0.398-4-0.398
		c-13.257,0-24.002,10.741-24.002,24.006c0,13.25,10.745,23.999,24.002,23.999c1.371,0,2.691-0.188,4-0.406
		C156.647,401.663,147.986,391.859,147.986,379.976z" />
	</g>
	<g style="opacity:0.2;">
		<path d="M179.992,379.976c0,11.883-8.659,21.687-20.002,23.593c1.309,0.219,2.628,0.406,4,0.406
		c13.257,0,24.003-10.749,24.003-23.999c0-13.265-10.746-24.006-24.003-24.006c-1.371,0-2.691,0.18-4,0.398
		C171.333,358.291,179.992,368.087,179.992,379.976z" />
	</g>
	<path style="fill:#FFCE54;" d="M171.989,379.976c0,4.414-3.582,8-8,8c-4.417,0-7.999-3.586-7.999-8c0-4.422,3.582-7.999,7.999-7.999
	C168.407,371.977,171.989,375.554,171.989,379.976z" />
	<path style="fill:#656D78;" d="M319.98,183.996c0,35.333-28.646,63.996-63.996,63.996c-35.333,0-63.996-28.663-63.996-63.996
	S220.651,120,255.984,120C291.334,120,319.98,148.663,319.98,183.996z" />
	<g style="opacity:0.2;">
		<path style="fill:#FFFFFF;" d="M199.987,183.996c0-33.982,26.533-61.719,59.997-63.793c-1.328-0.082-2.648-0.203-4-0.203
		c-35.333,0-63.996,28.663-63.996,63.996s28.663,63.996,63.996,63.996c1.352,0,2.672-0.121,4-0.203
		C226.521,245.715,199.987,217.979,199.987,183.996z" />
	</g>
	<g style="opacity:0.2;">
		<path d="M311.98,183.996c0,33.982-26.537,61.719-60,63.793c1.328,0.082,2.648,0.203,4,0.203c35.33,0,64-28.663,64-63.996
		S291.31,120,255.98,120c-1.352,0-2.671,0.121-4,0.203C285.443,122.277,311.98,150.014,311.98,183.996z" />
	</g>
	<g>
		<path style="fill:#3A3847;" d="M100.232,32.005c-2.207,0-4.039-1.789-4.039-4c0-2.21,1.75-4,3.96-4h0.078c2.211,0,4,1.789,4,4
		C104.232,30.216,102.442,32.005,100.232,32.005z" />
		<path style="fill:#3A3847;" d="M228.224,439.972c-2.207,0-4.039-1.789-4.039-3.999c0-2.211,1.75-4,3.96-4h0.078
		c2.211,0,4,1.789,4,4C232.224,438.183,230.435,439.972,228.224,439.972z" />
		<path style="fill:#3A3847;" d="M308.214,383.976c-2.203,0-4.031-1.789-4.031-4s1.75-4,3.953-4h0.078c2.219,0,4,1.789,4,4
		S310.433,383.976,308.214,383.976z" />
		<path style="fill:#3A3847;" d="M380.211,383.976c-2.203,0-4.031-1.789-4.031-4s1.75-4,3.953-4h0.078c2.219,0,4,1.789,4,4
		S382.429,383.976,380.211,383.976z" />
		<path style="fill:#3A3847;" d="M116.231,431.973c-2.207,0-4.039-1.789-4.039-4c0-2.21,1.75-3.999,3.96-3.999h0.078
		c2.211,0,4,1.789,4,3.999C120.231,430.184,118.442,431.973,116.231,431.973z" />
		<path style="fill:#3A3847;" d="M108.232,319.98c-2.207,0-4.039-1.789-4.039-4s1.75-4,3.961-4h0.078c2.21,0,4,1.789,4,4
		S110.442,319.98,108.232,319.98z" />
		<path style="fill:#3A3847;" d="M412.209,32.005c-2.203,0-4.031-1.789-4.031-4c0-2.21,1.75-4,3.953-4h0.078c2.219,0,4,1.789,4,4
		S414.427,32.005,412.209,32.005z" />
		<path style="fill:#3A3847;" d="M116.231,71.995c-2.207,0-4.039-1.789-4.039-4s1.75-4,3.96-4h0.078c2.211,0,4,1.789,4,4
		C120.231,70.206,118.442,71.995,116.231,71.995z" />
	</g>
	<path style="fill:#AAB2BD;" d="M279.982,183.988c0,13.253-10.748,23.999-23.998,23.999c-13.253,0-23.999-10.745-23.999-23.999
	s10.745-23.999,23.999-23.999C269.234,159.99,279.982,170.735,279.982,183.988z" />
	<g style="opacity:0.5;">
		<path style="fill:#FFFFFF;" d="M239.985,183.988c0-11.882,8.66-21.682,19.999-23.596c-1.309-0.219-2.629-0.402-4-0.402
		c-13.253,0-23.999,10.745-23.999,23.999c0,13.254,10.745,23.999,23.999,23.999c1.371,0,2.691-0.184,4-0.402
		C248.645,205.671,239.985,195.871,239.985,183.988z" />
	</g>
	<g style="opacity:0.2;">
		<path d="M271.982,183.988c0,11.882-8.662,21.682-20.001,23.596c1.309,0.219,2.628,0.402,4,0.402
		c13.254,0,24.002-10.745,24.002-23.999c0-13.254-10.748-23.999-24.002-23.999c-1.371,0-2.691,0.184-4,0.402
		C263.32,162.306,271.982,172.106,271.982,183.988z" />
	</g>
	<g>
		<circle style="fill:#AAB2BD;" cx="255.984" cy="139.994" r="8" />
		<circle style="fill:#AAB2BD;" cx="255.984" cy="227.984" r="8" />
	</g>
	<circle style="fill:#656D78;" cx="255.984" cy="183.994" r="8" />
	<circle style="fill:#AAB2BD;" cx="224.874" cy="152.874" r="7.998" />
	<g style="opacity:0.5;">
		<path style="fill:#FFFFFF;" d="M227.22,158.533c-3.125-3.125-3.125-8.187,0-11.312c0.488-0.488,1.086-0.766,1.656-1.102
		c-3.066-1.809-7.019-1.535-9.655,1.102c-3.125,3.125-3.125,8.187,0,11.312c2.637,2.637,6.589,2.91,9.655,1.102
		C228.306,159.298,227.708,159.021,227.22,158.533z" />
	</g>
	<g style="opacity:0.5;">
		<path style="fill:#FFFFFF;" d="M258.328,145.647c-3.125-3.125-3.125-8.187,0-11.312c0.488-0.488,1.086-0.765,1.656-1.101
		c-3.066-1.809-7.019-1.535-9.656,1.101c-3.125,3.125-3.125,8.187,0,11.312c2.637,2.637,6.59,2.91,9.656,1.102
		C259.414,146.413,258.816,146.135,258.328,145.647z" />
	</g>
	<g style="opacity:0.5;">
		<path style="fill:#FFFFFF;" d="M258.328,233.642c-3.125-3.125-3.125-8.187,0-11.312c0.488-0.488,1.086-0.766,1.656-1.102
		c-3.066-1.809-7.019-1.535-9.656,1.102c-3.125,3.125-3.125,8.187,0,11.312c2.637,2.636,6.59,2.91,9.656,1.101
		C259.414,234.407,258.816,234.13,258.328,233.642z" />
	</g>
	<g>
		<path style="fill:#AAB2BD;" d="M292.755,209.444c3.117,3.121,3.125,8.187,0,11.312s-8.195,3.121-11.313,0
		c-3.125-3.125-3.133-8.19-0.008-11.315S289.63,206.319,292.755,209.444z" />
		<path style="fill:#AAB2BD;" d="M211.994,175.985c4.414,0,7.992,3.582,7.992,7.996c0,4.421-3.578,8.003-8,8
		c-4.414,0.004-7.999-3.578-7.991-7.996C203.987,179.567,207.573,175.985,211.994,175.985z" />
		<path style="fill:#AAB2BD;" d="M299.99,175.985c4.412,0.004,7.99,3.582,7.998,8c-0.008,4.417-3.586,8.003-7.998,8
		c-4.422,0-8.008-3.578-8.008-8C291.982,179.567,295.568,175.985,299.99,175.985z" />
		<path style="fill:#AAB2BD;" d="M219.221,209.432c3.125-3.121,8.187-3.117,11.304,0.004c3.133,3.129,3.133,8.187,0,11.312
		c-3.117,3.125-8.179,3.129-11.304,0C216.096,217.627,216.096,212.561,219.221,209.432z" />
	</g>
	<g style="opacity:0.5;">
		<path style="fill:#FFFFFF;" d="M302.324,189.652c-3.123-3.125-3.123-8.187,0-11.312c0.484-0.488,1.086-0.766,1.656-1.102
		c-3.061-1.809-7.014-1.535-9.654,1.102c-3.125,3.125-3.125,8.187,0,11.312c2.641,2.637,6.594,2.91,9.654,1.102
		C303.41,190.418,302.808,190.14,302.324,189.652z" />
	</g>
	<g style="opacity:0.5;">
		<path style="fill:#FFFFFF;" d="M214.338,189.652c-3.125-3.125-3.125-8.187,0-11.312c0.488-0.488,1.086-0.766,1.656-1.102
		c-3.066-1.809-7.019-1.535-9.656,1.102c-3.125,3.125-3.125,8.187,0,11.312c2.637,2.637,6.589,2.91,9.656,1.102
		C215.424,190.418,214.826,190.14,214.338,189.652z" />
	</g>
	<g>
		<path style="fill:#AAB2BD;" d="M281.443,147.213c3.125-3.117,8.18-3.121,11.313,0c3.117,3.128,3.125,8.194,0,11.312
		c-3.125,3.125-8.195,3.129-11.32,0.004S278.318,150.338,281.443,147.213z" />
		<path style="fill:#AAB2BD;" d="M395.976,307.981h-16v15.999h16c4.42,0,7.998-3.578,7.998-8S400.396,307.981,395.976,307.981z" />
	</g>
	<g style="opacity:0.5;">
		<path style="fill:#FFFFFF;" d="M289.435,158.537c-3.125-3.125-3.125-8.187,0-11.312c0.492-0.488,1.094-0.766,1.656-1.102
		c-3.063-1.809-7.016-1.535-9.656,1.102c-3.125,3.125-3.125,8.187,0,11.312c2.641,2.637,6.594,2.91,9.656,1.102
		C290.529,159.302,289.927,159.025,289.435,158.537z" />
	</g>
	<g style="opacity:0.5;">
		<path style="fill:#FFFFFF;" d="M289.435,220.759c-3.125-3.125-3.125-8.187,0-11.312c0.492-0.488,1.094-0.766,1.656-1.102
		c-3.063-1.809-7.016-1.535-9.656,1.102c-3.125,3.125-3.125,8.187,0,11.312c2.641,2.637,6.594,2.91,9.656,1.102
		C290.529,221.525,289.927,221.248,289.435,220.759z" />
	</g>
	<g style="opacity:0.5;">
		<path style="fill:#FFFFFF;" d="M227.22,220.759c-3.125-3.125-3.125-8.187,0-11.312c0.488-0.488,1.086-0.766,1.656-1.102
		c-3.066-1.809-7.019-1.535-9.655,1.102c-3.125,3.125-3.125,8.187,0,11.312c2.637,2.637,6.589,2.91,9.655,1.102
		C228.306,221.525,227.708,221.248,227.22,220.759z" />
	</g>
	<path style="fill:#AAB2BD;" d="M371.976,43.997c0,4.418-3.578,8-7.998,8c-4.422,0-8-3.582-8-8c0-4.417,3.578-7.999,8-7.999
	C368.398,35.998,371.976,39.579,371.976,43.997z" />
	<g style="opacity:0.3;">
		<rect x="291.984" y="363.974" style="fill:#FFFFFF;" width="8" height="32.01" />
	</g>
	<g style="opacity:0.3;">
		<rect x="323.984" y="363.974" style="fill:#FFFFFF;" width="8" height="32.01" />
	</g>
	<g style="opacity:0.3;">
		<rect x="363.974" y="363.974" style="fill:#FFFFFF;" width="7.998" height="32.01" />
	</g>
	<g style="opacity:0.3;">
		<rect x="355.974" y="363.974" width="8" height="32.01" />
	</g>
	<g style="opacity:0.3;">
		<rect x="315.984" y="363.974" width="8" height="32.01" />
	</g>
	<g style="opacity:0.3;">
		<rect x="387.974" y="363.974" width="8" height="32.01" />
	</g>
	<g>
		<path style="fill:#3A3847;" d="M419.974,471.97H91.994c-11.027,0-19.999-8.968-19.999-19.998V19.999
		C71.995,8.972,80.967,0,91.994,0h327.98c11.029,0,19.998,8.972,19.998,19.999v431.974
		C439.972,463.003,431.004,471.97,419.974,471.97z M91.994,7.999c-6.617,0-12,5.382-12,12v431.974c0,6.616,5.382,11.999,12,11.999
		h327.98c6.617,0,11.998-5.383,11.998-11.999V19.999c0-6.617-5.381-12-11.998-12C419.974,7.999,91.994,7.999,91.994,7.999z" />
		<path style="fill:#3A3847;" d="M419.974,511.968H91.994c-11.027,0-19.999-8.969-19.999-19.999v-39.958c0-2.211,1.789-4,4-4
		c2.21,0,4,1.789,4,4v39.958c0,6.617,5.382,11.999,12,11.999h327.98c6.617,0,11.998-5.382,11.998-11.999v-39.958
		c0-2.211,1.789-4,4-4s4,1.789,4,4v39.958C439.972,503,431.004,511.968,419.974,511.968z" />
		<path style="fill:#3A3847;" d="M255.984,343.986c-4.14,0-8.242-0.164-12.304-0.461c-2.199-0.172-3.851-2.093-3.687-4.296
		s1.996-3.859,4.289-3.688c3.859,0.297,7.766,0.445,11.703,0.445c83.807,0,151.99-68.184,151.99-151.991
		s-68.184-151.99-151.991-151.99s-151.991,68.184-151.991,151.991c0,52.469,26.521,100.548,70.945,128.601
		c1.867,1.18,2.426,3.648,1.246,5.523c-1.18,1.859-3.64,2.422-5.519,1.242c-46.755-29.537-74.671-80.136-74.671-135.367
		c0-88.217,71.773-159.99,159.99-159.99c88.213,0,159.99,71.773,159.99,159.99C415.974,272.217,344.197,343.986,255.984,343.986z" />
		<path style="fill:#3A3847;" d="M147.99,187.996c-2.21,0-4-1.789-4-4c0-61.754,50.239-111.993,111.993-111.993c2.211,0,4,1.789,4,4
		s-1.789,4-4,4c-57.344,0-103.994,46.649-103.994,103.994C151.99,186.207,150.201,187.996,147.99,187.996z" />
		<path style="fill:#3A3847;" d="M255.984,295.99c-2.21,0-4-1.789-4-4s1.789-4,4-4c57.34,0,103.994-46.649,103.994-103.994
		c0-2.21,1.789-4,4-4c2.209,0,3.998,1.789,3.998,4C367.976,245.751,317.738,295.99,255.984,295.99z" />
		<path style="fill:#3A3847;" d="M255.984,251.984c-37.494,0-67.996-30.502-67.996-67.996s30.502-67.996,67.996-67.996
		c37.498,0,67.996,30.502,67.996,67.996S293.482,251.984,255.984,251.984z M255.984,123.992c-33.084,0-59.997,26.913-59.997,59.997
		s26.913,59.997,59.997,59.997s59.996-26.913,59.996-59.997S289.068,123.992,255.984,123.992z" />
		<path style="fill:#3A3847;" d="M255.984,195.988c-6.617,0-12-5.383-12-12s5.383-12,12-12c6.617,0,12,5.383,12,12
		S262.601,195.988,255.984,195.988z M255.984,179.989c-2.207,0-4,1.793-4,4s1.793,4,4,4c2.207,0,4-1.793,4-4
		S258.191,179.989,255.984,179.989z" />
		<path style="fill:#3A3847;" d="M255.984,211.987c-15.437,0-27.999-12.562-27.999-27.999s12.562-27.999,27.999-27.999
		c15.436,0,27.998,12.562,27.998,27.999C283.982,199.425,271.42,211.987,255.984,211.987z M255.984,163.99
		c-11.027,0-19.999,8.972-19.999,19.999s8.972,19.999,19.999,19.999c11.031,0,19.998-8.972,19.998-19.999
		C275.982,172.962,267.015,163.99,255.984,163.99z" />
		<path style="fill:#3A3847;" d="M255.984,151.99c-6.617,0-12-5.382-12-12c0-6.616,5.383-11.999,12-11.999
		c6.617,0,12,5.383,12,11.999C267.984,146.608,262.601,151.99,255.984,151.99z M255.984,135.991c-2.207,0-4,1.793-4,4s1.793,4,4,4
		c2.207,0,4-1.793,4-4S258.191,135.991,255.984,135.991z" />
		<path style="fill:#3A3847;" d="M363.978,55.996c-6.617,0-12-5.382-12-12c0-6.616,5.383-11.999,12-11.999
		c6.615,0,11.998,5.383,11.998,11.999C375.976,50.614,370.593,55.996,363.978,55.996z M363.978,39.997c-2.203,0-4,1.793-4,4
		s1.797,4,4,4c2.201,0,3.998-1.793,3.998-4C367.976,41.79,366.179,39.997,363.978,39.997z" />
		<path style="fill:#3A3847;" d="M255.984,239.985c-6.617,0-12-5.383-12-11.999c0-6.617,5.383-12,12-12c6.617,0,12,5.382,12,12
		C267.984,234.602,262.601,239.985,255.984,239.985z M255.984,223.986c-2.207,0-4,1.793-4,4s1.793,4,4,4c2.207,0,4-1.793,4-4
		S258.191,223.986,255.984,223.986z" />
		<path style="fill:#3A3847;" d="M224.88,164.877c-3.203,0-6.214-1.246-8.484-3.508c-4.684-4.684-4.684-12.3-0.004-16.979
		c4.535-4.535,12.429-4.527,16.968,0.008c2.266,2.258,3.512,5.27,3.516,8.472c0.004,3.21-1.246,6.226-3.516,8.496
		C231.095,163.63,228.083,164.877,224.88,164.877z M224.869,148.878c-1.066,0-2.066,0.414-2.82,1.167
		c-1.562,1.563-1.562,4.101,0,5.664c1.508,1.508,4.148,1.516,5.656,0c0.758-0.758,1.172-1.761,1.172-2.832
		c0-1.066-0.414-2.07-1.168-2.82C226.946,149.296,225.939,148.878,224.869,148.878z" />
		<path style="fill:#3A3847;" d="M287.091,227.103c-3.203,0-6.219-1.25-8.484-3.516c-4.672-4.688-4.672-12.296,0-16.968
		c4.531-4.531,12.453-4.535,16.969,0.004c2.266,2.262,3.516,5.277,3.516,8.48s-1.25,6.218-3.516,8.484
		S290.295,227.103,287.091,227.103z M287.091,211.104c-1.063,0-2.07,0.418-2.828,1.172c-1.563,1.559-1.555,4.097,0,5.66
		c1.516,1.5,4.141,1.503,5.656-0.004c0.75-0.758,1.172-1.762,1.172-2.828s-0.422-2.07-1.172-2.828S288.162,211.104,287.091,211.104z
		" />
		<path style="fill:#3A3847;" d="M211.994,195.988c-6.62,0-12.007-5.387-12.007-12.007c0-6.609,5.375-11.984,11.983-11.984
		c6.641,0,12.015,5.383,12.015,12c0.004,3.191-1.238,6.203-3.5,8.468C218.221,194.738,215.205,195.988,211.994,195.988z
		 M212.002,179.997c-2.226,0-4.015,1.789-4.015,3.984c0,3.281,4.515,5.148,6.839,2.835c0.75-0.754,1.16-1.753,1.16-2.812
		C215.986,181.79,214.197,179.997,212.002,179.997z" />
		<path style="fill:#3A3847;" d="M299.982,195.996c0,0,0,0-0.008,0c-6.617-0.012-11.992-5.395-11.992-12c0-6.617,5.383-12,12-12
		c6.615,0,11.998,5.383,11.998,12S306.597,195.996,299.982,195.996z M299.982,179.997c-2.203,0-4,1.793-4,4c0,2.199,1.797,3.996,4,4
		c2.201-0.004,3.998-1.797,3.998-4C303.98,181.79,302.183,179.997,299.982,179.997z" />
		<path style="fill:#3A3847;" d="M224.877,227.103c-3.203,0-6.218-1.25-8.484-3.516c-2.27-2.27-3.516-5.285-3.516-8.496
		c0.004-3.203,1.25-6.214,3.52-8.476c4.523-4.523,12.433-4.527,16.964,0.004c2.262,2.25,3.516,5.258,3.52,8.46
		c0.004,3.214-1.246,6.234-3.52,8.507C231.095,225.853,228.079,227.103,224.877,227.103z M224.877,211.104
		c-1.066,0-2.07,0.418-2.828,1.172c-0.757,0.754-1.171,1.757-1.171,2.824c0,1.07,0.414,2.074,1.171,2.832
		c1.516,1.507,4.14,1.507,5.656,0c0.758-0.758,1.176-1.77,1.176-2.84c-0.004-1.063-0.418-2.062-1.168-2.808
		C226.946,211.522,225.943,211.104,224.877,211.104z" />
		<path style="fill:#3A3847;" d="M287.091,164.88c-3.203,0-6.203-1.246-8.469-3.508c-2.273-2.273-3.523-5.293-3.516-8.503
		c0-3.207,1.25-6.214,3.523-8.472c4.5-4.52,12.414-4.535,16.953,0c2.273,2.27,3.523,5.285,3.523,8.488
		c-0.008,3.203-1.258,6.214-3.523,8.48S290.302,164.88,287.091,164.88z M287.107,148.881c-1.063,0-2.07,0.418-2.82,1.171
		c-0.766,0.762-1.18,1.762-1.18,2.824c0,1.074,0.414,2.082,1.172,2.839c1.5,1.504,4.141,1.496,5.648-0.008
		c0.758-0.758,1.18-1.761,1.18-2.828c0-1.067-0.422-2.07-1.18-2.828C289.17,149.299,288.17,148.881,287.107,148.881z" />
		<path style="fill:#3A3847;" d="M131.991,71.995c-2.21,0-4-1.789-4-4c0-6.617-5.382-12-12-12c-6.616,0-11.999,5.382-11.999,12
		c0,2.21-1.789,4-4,4c-2.21,0-4-1.789-4-4c0-11.027,8.972-19.999,19.999-19.999c11.027,0,19.999,8.972,19.999,19.999
		C135.991,70.206,134.202,71.995,131.991,71.995z" />
		<path style="fill:#3A3847;" d="M99.993,127.992c-2.21,0-4-1.789-4-4V67.996c0-2.211,1.789-4,4-4s4,1.789,4,4v55.996
		C103.993,126.203,102.204,127.992,99.993,127.992z" />
		<path style="fill:#3A3847;" d="M419.974,71.995c-1.023,0-2.047-0.391-2.828-1.172l-47.998-47.997c-1.563-1.562-1.563-4.093,0-5.656
		s4.094-1.563,5.656,0l47.998,47.997c1.563,1.563,1.563,4.094,0,5.656C422.021,71.605,420.998,71.995,419.974,71.995z" />
		<path style="fill:#3A3847;" d="M419.974,135.991c-2.211,0-4-1.789-4-4V67.996c0-2.211,1.789-4,4-4s4,1.789,4,4v63.996
		C423.974,134.202,422.185,135.991,419.974,135.991z" />
		<path style="fill:#3A3847;" d="M371.976,23.998H307.98c-2.211,0-4-1.789-4-4s1.789-4,4-4h63.996c2.211,0,4,1.789,4,4
		S374.187,23.998,371.976,23.998z" />
		<path style="fill:#3A3847;" d="M195.987,23.998h-55.996c-2.211,0-4-1.789-4-4s1.789-4,4-4h55.996c2.211,0,4,1.789,4,4
		S198.198,23.998,195.987,23.998z" />
		<path style="fill:#3A3847;" d="M123.992,39.997c-1.023,0-2.047-0.391-2.828-1.172c-1.563-1.562-1.563-4.093,0-5.656l15.999-15.999
		c1.563-1.563,4.094-1.563,5.656,0c1.563,1.563,1.563,4.094,0,5.656L126.82,38.825C126.039,39.607,125.016,39.997,123.992,39.997z" />
		<path style="fill:#3A3847;" d="M91.994,447.972c-2.211,0-4-1.789-4-4V275.983c0-2.211,1.789-4,4-4c2.21,0,4,1.789,4,4v167.989
		C95.994,446.183,94.205,447.972,91.994,447.972z" />
		<path style="fill:#3A3847;" d="M267.984,455.972H99.993c-2.21,0-4-1.789-4-4s1.789-4,4-4h167.991c2.209,0,3.998,1.789,3.998,4
		S270.193,455.972,267.984,455.972z" />
		<path style="fill:#3A3847;" d="M100.032,456.011c-6.636,0-12.038-5.398-12.038-12.039c0-2.211,1.789-4,4-4c2.21,0,4,1.789,4,4
		c0,2.227,1.813,4.039,4.039,4.039c2.211,0,4,1.789,4,4S102.243,456.011,100.032,456.011z" />
		<path style="fill:#3A3847;" d="M155.99,343.978c-1.023,0-2.047-0.391-2.828-1.172L89.166,278.81c-1.563-1.562-1.563-4.093,0-5.655
		s4.094-1.563,5.656,0l63.996,63.996c1.563,1.563,1.563,4.094,0,5.655C158.037,343.588,157.014,343.978,155.99,343.978z" />
		<path style="fill:#3A3847;" d="M163.989,407.974c-7.479,0-14.511-2.913-19.799-8.202s-8.203-12.319-8.203-19.796
		c0-7.483,2.914-14.515,8.203-19.803c10.578-10.578,29.022-10.578,39.599,0c5.289,5.288,8.203,12.319,8.203,19.803
		c0,7.477-2.914,14.507-8.203,19.796S171.47,407.974,163.989,407.974z M163.989,359.97c-5.343,0-10.366,2.085-14.144,5.858
		s-5.859,8.804-5.859,14.147s2.082,10.359,5.859,14.14c7.555,7.555,20.733,7.555,28.287,0c3.777-3.78,5.859-8.796,5.859-14.14
		s-2.082-10.374-5.859-14.147C174.356,362.055,169.333,359.97,163.989,359.97z" />
		<path style="fill:#3A3847;" d="M163.989,391.976c-3.207,0-6.218-1.25-8.483-3.516c-4.68-4.68-4.68-12.297,0-16.976
		c4.531-4.531,12.437-4.523,16.968-0.008c4.679,4.687,4.679,12.304,0,16.983C170.208,390.726,167.196,391.976,163.989,391.976z
		 M163.989,375.976c-1.07,0-2.074,0.414-2.828,1.172c-1.563,1.555-1.563,4.094,0,5.656c1.507,1.5,4.148,1.5,5.656,0
		c1.563-1.563,1.563-4.102,0-5.664C166.064,376.39,165.06,375.976,163.989,375.976z" />
		<path style="fill:#3A3847;" d="M171.997,350.033c-1.285,0-2.547-0.617-3.316-1.758c-1.238-1.828-0.758-4.32,1.074-5.555
		l79.987-54.051c1.824-1.234,4.316-0.75,5.55,1.078c1.239,1.828,0.758,4.313-1.074,5.547l-79.987,54.051
		C173.548,349.806,172.767,350.033,171.997,350.033z" />
		<path style="fill:#3A3847;" d="M197.925,375.968c-0.77,0-1.551-0.227-2.234-0.688c-1.832-1.234-2.312-3.726-1.074-5.554
		l54.052-79.979c1.23-1.828,3.723-2.313,5.55-1.078c1.833,1.234,2.313,3.719,1.074,5.547l-54.051,79.994
		C200.472,375.351,199.21,375.968,197.925,375.968z" />
		<path style="fill:#3A3847;" d="M267.984,455.972c-1.023,0-2.047-0.391-2.828-1.172l-63.997-63.996
		c-1.563-1.563-1.563-4.094,0-5.656s4.094-1.563,5.656,0l63.995,63.996c1.563,1.563,1.563,4.094,0,5.656
		C270.029,455.582,269.007,455.972,267.984,455.972z" />
		<path style="fill:#3A3847;" d="M283.982,455.972c-1.359,0-2.68-0.688-3.43-1.938c-1.133-1.898-0.523-4.359,1.367-5.492
		l39.998-23.998c0.625-0.375,1.336-0.57,2.063-0.57h95.994c2.211,0,4,1.789,4,3.999c0,2.211-1.789,4-4,4h-94.885l-39.045,23.429
		C285.396,455.785,284.685,455.972,283.982,455.972z" />
		<path style="fill:#3A3847;" d="M419.974,431.973c-2.211,0-4-1.789-4-4V243.985c0-2.211,1.789-4,4-4s4,1.789,4,4v183.988
		C423.974,430.184,422.185,431.973,419.974,431.973z" />
		<path style="fill:#3A3847;" d="M131.991,415.974H99.993c-2.21,0-4-1.789-4-4s1.789-4,4-4h31.998c2.211,0,4,1.789,4,4
		S134.202,415.974,131.991,415.974z" />
		<path style="fill:#3A3847;" d="M131.991,447.972c-2.21,0-4-1.789-4-4v-31.998c0-2.211,1.789-4,4-4s4,1.789,4,4v31.998
		C135.991,446.183,134.202,447.972,131.991,447.972z" />
		<path style="fill:#3A3847;" d="M395.976,327.98h-16c-2.211,0-4-1.789-4-4v-15.999c0-2.211,1.789-4,4-4h16
		c6.615,0,11.998,5.383,11.998,11.999C407.974,322.597,402.591,327.98,395.976,327.98z M383.976,319.98h12
		c2.201,0,3.998-1.797,3.998-4s-1.797-4-3.998-4h-12V319.98z" />
		<path style="fill:#3A3847;" d="M291.982,399.975c-2.211,0-4-1.789-4-4v-32.006c0-2.21,1.789-3.999,4-3.999s4,1.789,4,3.999v32.006
		C295.982,398.186,294.193,399.975,291.982,399.975z" />
		<path style="fill:#3A3847;" d="M395.976,399.975c-2.211,0-4-1.789-4-4v-31.998c0-2.21,1.789-3.999,4-3.999
		c2.209,0,3.998,1.789,3.998,3.999v31.998C399.974,398.186,398.185,399.975,395.976,399.975z" />
		<path style="fill:#3A3847;" d="M395.976,367.977H291.982c-2.211,0-4-1.789-4-4c0-2.21,1.789-3.999,4-3.999h103.994
		c2.209,0,3.998,1.789,3.998,3.999C399.974,366.188,398.185,367.977,395.976,367.977z" />
		<path style="fill:#3A3847;" d="M395.976,399.975H291.982c-2.211,0-4-1.789-4-4c0-2.21,1.789-3.999,4-3.999h103.994
		c2.209,0,3.998,1.789,3.998,3.999C399.974,398.186,398.185,399.975,395.976,399.975z" />
		<path style="fill:#3A3847;" d="M323.98,391.976c-2.211,0-4-1.789-4-4v-15.999c0-2.211,1.789-4,4-4s4,1.789,4,4v15.999
		C327.98,390.187,326.191,391.976,323.98,391.976z" />
		<path style="fill:#3A3847;" d="M363.978,391.976c-2.211,0-4-1.789-4-4v-15.999c0-2.211,1.789-4,4-4c2.209,0,3.998,1.789,3.998,4
		v15.999C367.976,390.187,366.187,391.976,363.978,391.976z" />
	</g>
	<g></g>
	<g></g>
	<g></g>
	<g></g>
	<g></g>
	<g></g>
	<g></g>
	<g></g>
	<g></g>
	<g></g>
	<g></g>
	<g></g>
	<g></g>
	<g></g>
	<g></g>
</svg>
